<?xml version="1.0" standalone="no"?>
<!DOCTYPE svg PUBLIC "-//W3C//DTD SVG 20010904//EN"
 "http://www.w3.org/TR/2001/REC-SVG-20010904/DTD/svg10.dtd">
<svg version="1.0" xmlns="http://www.w3.org/2000/svg"
 width="256.000000pt" height="256.000000pt" viewBox="0 0 256.000000 256.000000"
 preserveAspectRatio="xMidYMid meet">
<metadata>
Created by potrace 1.14, written by Peter Selinger 2001-2017
</metadata>
<g transform="translate(0.000000,256.000000) scale(0.100000,-0.100000)"
fill="#000000" stroke="none">
<path d="M910 2425 c0 -25 -1 -25 -80 -25 -79 0 -80 0 -80 -25 l0 -25 -110 0
-110 0 0 -30 c0 -29 -1 -30 -50 -30 -47 0 -50 -2 -50 -25 0 -21 -5 -25 -30
-25 -30 0 -30 -1 -30 -55 0 -52 -1 -55 -25 -55 -23 0 -25 -3 -25 -50 0 -47 -2
-50 -25 -50 -25 0 -25 -1 -25 -80 l0 -80 -55 0 c-54 0 -55 0 -55 -30 0 -25 -4
-30 -25 -30 -20 0 -25 -5 -25 -25 0 -21 -5 -25 -30 -25 -25 0 -30 -4 -30 -25
0 -20 -5 -25 -25 -25 l-25 0 0 -160 0 -160 25 0 c24 0 25 -3 25 -55 0 -52 -1
-55 -25 -55 l-25 0 0 -135 0 -135 25 0 c23 0 25 -3 25 -50 0 -49 1 -50 30 -50
27 0 30 -3 30 -30 0 -25 4 -30 25 -30 20 0 25 -5 25 -25 0 -20 5 -25 25 -25
20 0 25 -5 25 -25 0 -21 5 -25 30 -25 27 0 30 -3 30 -30 0 -25 4 -30 25 -30
20 0 25 -5 25 -25 0 -25 1 -25 80 -25 l80 0 0 -80 c0 -79 0 -80 -25 -80 -25 0
-25 -1 -25 -80 l0 -80 -30 0 c-25 0 -30 -4 -30 -25 0 -20 -5 -25 -25 -25 -21
0 -25 -5 -25 -30 0 -30 -1 -30 -55 -30 -52 0 -55 -1 -55 -25 0 -20 -5 -25 -25
-25 -20 0 -25 -5 -25 -25 0 -24 -3 -25 -55 -25 -54 0 -55 0 -55 -30 0 -25 -4
-30 -25 -30 -20 0 -25 -5 -25 -25 l0 -25 585 0 585 0 0 25 0 25 110 0 110 0 0
30 c0 25 4 30 25 30 20 0 25 5 25 25 0 20 5 25 25 25 20 0 25 5 25 25 0 21 5
25 30 25 l30 0 0 80 c0 79 0 80 25 80 24 0 25 3 25 55 0 52 1 55 25 55 l25 0
0 105 0 105 30 0 30 0 0 110 0 110 105 0 105 0 0 105 0 105 25 0 c24 0 25 3
25 55 0 54 0 55 30 55 l30 0 0 290 0 290 -30 0 c-30 0 -30 1 -30 55 0 52 -1
55 -25 55 -24 0 -25 3 -25 55 0 52 -1 55 -25 55 -23 0 -25 3 -25 50 0 49 -1
50 -30 50 -27 0 -30 3 -30 30 0 29 -1 30 -50 30 -47 0 -50 2 -50 25 0 21 -5
25 -30 25 -25 0 -30 4 -30 25 0 25 -1 25 -80 25 l-80 0 0 30 c0 29 -1 30 -50
30 -47 0 -50 2 -50 25 0 24 -3 25 -55 25 -52 0 -55 1 -55 25 l0 25 -185 0
-185 0 0 -25z m50 -430 c0 -24 1 -24 103 -27 97 -3 102 -4 105 -25 3 -22 8
-23 135 -25 l132 -3 3 -27 c3 -26 6 -28 53 -28 l49 0 0 -49 c0 -47 2 -50 28
-53 25 -3 27 -7 30 -55 3 -45 6 -52 25 -55 21 -3 22 -8 25 -130 l3 -128 -131
0 -130 0 0 -80 0 -80 -55 0 -55 0 0 80 c0 79 0 80 -25 80 -20 0 -25 5 -25 25
l0 25 -215 0 -215 0 0 55 c0 52 -1 55 -25 55 -25 0 -25 1 -25 80 0 79 0 80 25
80 23 0 25 3 25 50 0 47 -2 50 -26 50 -24 0 -25 2 -22 53 3 45 6 52 25 55 14
2 23 11 25 25 3 19 10 22 56 25 48 3 52 5 52 28 0 19 5 24 25 24 20 0 25 -5
25 -25z m-160 -795 l0 -30 105 0 105 0 0 -25 c0 -21 5 -25 30 -25 25 0 30 4
30 25 0 23 3 25 50 25 l50 0 0 -80 c0 -79 0 -80 -25 -80 -20 0 -25 -5 -25 -25
0 -20 -5 -25 -25 -25 -24 0 -25 -3 -25 -55 l0 -55 -80 0 c-79 0 -80 0 -80 -25
0 -21 -5 -25 -30 -25 -25 0 -30 -4 -30 -25 0 -23 -3 -25 -50 -25 l-50 0 0 50
c0 47 2 50 25 50 25 0 25 1 25 80 0 79 0 80 -25 80 l-25 0 0 110 0 110 25 0
c21 0 25 -5 25 -30z m850 -240 l0 -160 -25 0 c-20 0 -25 5 -25 25 0 20 -5 25
-25 25 -21 0 -25 5 -25 30 0 27 -3 30 -30 30 -25 0 -30 4 -30 25 0 20 -5 25
-25 25 -25 0 -25 1 -25 80 l0 80 105 0 105 0 0 -160z m-260 -320 c0 -49 -1
-50 -30 -50 -27 0 -30 -3 -30 -30 l0 -30 -80 0 -80 0 0 31 0 31 -50 -7 -50 -7
0 31 0 31 80 0 c79 0 80 0 80 25 0 25 1 25 80 25 l80 0 0 -50z m-430 -25 c0
-20 5 -25 25 -25 25 0 25 -1 25 -80 l0 -80 30 0 c27 0 30 -3 30 -30 0 -25 4
-30 25 -30 20 0 25 -5 25 -25 0 -24 3 -25 55 -25 52 0 55 -1 55 -25 0 -20 5
-25 25 -25 21 0 25 -5 25 -30 l0 -30 -105 0 -105 0 0 30 c0 27 -3 30 -30 30
-29 0 -30 1 -30 50 0 47 -2 50 -25 50 -21 0 -25 5 -25 30 0 25 -4 30 -25 30
l-25 0 0 105 0 105 25 0 c20 0 25 -5 25 -25z m530 -55 c0 -25 -4 -30 -25 -30
-21 0 -25 5 -25 30 0 25 4 30 25 30 21 0 25 -5 25 -30z m-50 -135 c0 -52 -1
-55 -25 -55 -20 0 -25 -5 -25 -25 0 -21 -5 -25 -30 -25 -30 0 -30 1 -30 55 0
54 0 55 30 55 25 0 30 4 30 25 0 20 5 25 25 25 24 0 25 -3 25 -55z"/>
<path d="M1600 25 c0 -20 5 -25 25 -25 20 0 25 5 25 25 0 20 -5 25 -25 25 -20
0 -25 -5 -25 -25z"/>
</g>
</svg>
